# xmcd CD database file
#
# Track frame offsets:
#	150
#	20870
#	41097
#	58807
#	87817
#	118590
#	133537
#	149427
#
# Disc length: 2272 seconds
#
# Revision: 0
# Processed by: cddbd v1.4PL0 Copyright (c) Steve Scherf et al.
# Submitted via: CDex 1.50
#
DISCID=7308de08
DTITLE=Jazz-Sampler - Jazz Juice 7
DYEAR=1900
DGENRE=Jazz
TTITLE0=Right On
TTITLE1=Making Love After Hours
TTITLE2=Nerver Was Love
TTITLE3=Murilley
TTITLE4=You've Got To Have Freedom
TTITLE5=From The Lonely Afternoon
TTITLE6=Triste
TTITLE7=El Exi-Hente
EXTD=
EXTT0=
EXTT1=
EXTT2=
EXTT3=
EXTT4=
EXTT5=
EXTT6=
EXTT7=
PLAYORDER=
